<?xml version="1.0" encoding="utf-8"?>
<!-- Svg Vector Icons : http://www.onlinewebfonts.com/icon -->
<!DOCTYPE svg PUBLIC "-//W3C//DTD SVG 1.1//EN" "http://www.w3.org/Graphics/SVG/1.1/DTD/svg11.dtd">
<svg version="1.1" xmlns="http://www.w3.org/2000/svg" xmlns:xlink="http://www.w3.org/1999/xlink" x="0px" y="0px" height="1000px" width="1000px" viewBox="0 0 1000 1000" enable-background="new 0 0 1000 1000" xml:space="preserve" fill="#ffffff">
<metadata> Svg Vector Icons : http://www.onlinewebfonts.com/icon </metadata>
<g><path d="M984.3,214.7c-5.6-8-14.6-13-24.4-13.4L352,175.1c-17.4-0.8-32,12.7-32.8,30.1c-0.7,17.4,12.7,32,30.1,32.8L916,262.4L804.6,610.1H308.7l-89.6-487.8c-2-10.7-9.3-19.6-19.4-23.6L53,41c-16.2-6.3-34.4,1.6-40.8,17.8c-6.3,16.2,1.6,34.4,17.8,40.8l130.5,51.3l91.2,496.4c2.7,14.9,15.8,25.8,30.9,25.8h15.1l-34.5,95.9c-2.9,8-1.7,17,3.2,23.9c4.9,7,12.9,11.1,21.4,11.1H312c-15,16.7-24.2,38.7-24.2,62.9c0,52,42.3,94.3,94.3,94.3s94.3-42.3,94.3-94.3c0-24.2-9.2-46.2-24.2-62.9h205.7c-15,16.7-24.2,38.7-24.2,62.9c0,52,42.3,94.3,94.3,94.3s94.3-42.3,94.3-94.3c0-24.2-9.2-46.2-24.2-62.9h29.5c14.5,0,26.2-11.7,26.2-26.2s-11.7-26.2-26.2-26.2H325l28.3-78.6h474.2c13.7,0,25.8-8.8,29.9-21.8l131-408.8C991.5,233,990,222.8,984.3,214.7z M382.1,908.8c-23.1,0-41.9-18.8-41.9-41.9c0-23.1,18.8-41.9,41.9-41.9c23.1,0,41.9,18.8,41.9,41.9C424,890,405.2,908.8,382.1,908.8z M728,908.8c-23.1,0-41.9-18.8-41.9-41.9c0-23.1,18.8-41.9,41.9-41.9s41.9,18.8,41.9,41.9C769.9,890,751.1,908.8,728,908.8z"/></g>
</svg>